<svg xmlns="http://www.w3.org/2000/svg" xmlns:xlink="http://www.w3.org/1999/xlink" version="1.1" width="256" height="256" viewBox="0 0 256 256" xml:space="preserve">

<defs>
</defs>
<g style="stroke: none; stroke-width: 0; stroke-dasharray: none; stroke-linecap: butt; stroke-linejoin: miter; stroke-miterlimit: 10; fill: none; fill-rule: nonzero; opacity: 1;" transform="translate(1.4065934065934016 1.4065934065934016) scale(2.81 2.81)" >
	<path d="M 1.275 12.5 c -0.761 0 -1.382 -0.674 -1.259 -1.429 C 0.695 6.885 4.31 3.69 8.668 3.69 h 6.342 l 6.771 8.81 H 1.275 z" style="stroke: none; stroke-width: 1; stroke-dasharray: none; stroke-linecap: butt; stroke-linejoin: miter; stroke-miterlimit: 10; fill: rgb(55,172,149); fill-rule: nonzero; opacity: 1;" transform=" matrix(1 0 0 1 0 0) " stroke-linecap="round" />
	<path d="M 72.553 77.5 V 60.435 V 12.5 c 0 -4.866 -3.925 -8.81 -8.767 -8.81 h 0 h 0 H 8.668 h 0 h 0 c 4.842 0 8.767 3.944 8.767 8.81 v 47.935 V 77.5 c 0 4.866 3.925 8.81 8.767 8.81 h 0 L 72.553 77.5 z" style="stroke: none; stroke-width: 1; stroke-dasharray: none; stroke-linecap: butt; stroke-linejoin: miter; stroke-miterlimit: 10; fill: rgb(101,222,198); fill-rule: nonzero; opacity: 1;" transform=" matrix(1 0 0 1 0 0) " stroke-linecap="round" />
	<path d="M 72.553 77.5 H 36.459 c -0.818 0 -1.474 0.618 -1.606 1.429 c -0.679 4.186 -4.294 7.381 -8.652 7.381 H 81.32 h 0 c 4.392 0 8.029 -3.245 8.667 -7.479 c 0.106 -0.704 -0.466 -1.331 -1.175 -1.331 L 72.553 77.5" style="stroke: none; stroke-width: 1; stroke-dasharray: none; stroke-linecap: butt; stroke-linejoin: miter; stroke-miterlimit: 10; fill: rgb(55,172,149); fill-rule: nonzero; opacity: 1;" transform=" matrix(1 0 0 1 0 0) " stroke-linecap="round" />
	<path d="M 28.77 45.471 h 32.595 c 0.853 0 1.545 -0.691 1.545 -1.545 s -0.692 -1.545 -1.545 -1.545 H 28.77 c -0.853 0 -1.545 0.691 -1.545 1.545 S 27.917 45.471 28.77 45.471 z" style="stroke: none; stroke-width: 1; stroke-dasharray: none; stroke-linecap: butt; stroke-linejoin: miter; stroke-miterlimit: 10; fill: rgb(55,172,149); fill-rule: nonzero; opacity: 1;" transform=" matrix(1 0 0 1 0 0) " stroke-linecap="round" />
	<path d="M 46.77 30.664 H 42.6 c -0.302 0 -0.557 -0.255 -0.557 -0.557 c 0 -0.853 -0.691 -1.545 -1.545 -1.545 c -0.853 0 -1.545 0.691 -1.545 1.545 c 0 2.011 1.636 3.647 3.647 3.647 h 0.54 v 1.059 c 0 0.853 0.691 1.545 1.545 1.545 s 1.545 -0.691 1.545 -1.545 v -1.059 h 0.54 c 2.01 0 3.647 -1.636 3.647 -3.647 v -3.235 c 0 -0.107 -0.011 -0.211 -0.032 -0.312 c -0.152 -1.759 -1.545 -3.151 -3.303 -3.303 c -0.101 -0.021 -0.205 -0.032 -0.312 -0.032 H 42.6 c -0.302 0 -0.557 -0.255 -0.557 -0.557 v -3.235 c 0 -0.302 0.255 -0.557 0.557 -0.557 h 4.17 c 0.302 0 0.557 0.255 0.557 0.557 c 0 0.853 0.692 1.545 1.545 1.545 s 1.545 -0.691 1.545 -1.545 c 0 -2.01 -1.636 -3.646 -3.647 -3.646 h -0.54 v -1.059 c 0 -0.853 -0.691 -1.545 -1.545 -1.545 s -1.545 0.691 -1.545 1.545 v 1.059 H 42.6 c -2.011 0 -3.647 1.636 -3.647 3.646 v 3.235 c 0 2.011 1.636 3.647 3.647 3.647 h 4.17 c 0.302 0 0.557 0.255 0.557 0.557 v 3.235 C 47.327 30.409 47.072 30.664 46.77 30.664 z" style="stroke: none; stroke-width: 1; stroke-dasharray: none; stroke-linecap: butt; stroke-linejoin: miter; stroke-miterlimit: 10; fill: rgb(55,172,149); fill-rule: nonzero; opacity: 1;" transform=" matrix(1 0 0 1 0 0) " stroke-linecap="round" />
	<path d="M 61.365 52.68 H 28.77 c -0.853 0 -1.545 0.692 -1.545 1.545 s 0.691 1.545 1.545 1.545 h 32.595 c 0.853 0 1.545 -0.692 1.545 -1.545 S 62.218 52.68 61.365 52.68 z" style="stroke: none; stroke-width: 1; stroke-dasharray: none; stroke-linecap: butt; stroke-linejoin: miter; stroke-miterlimit: 10; fill: rgb(55,172,149); fill-rule: nonzero; opacity: 1;" transform=" matrix(1 0 0 1 0 0) " stroke-linecap="round" />
	<path d="M 61.365 62.979 H 49.368 c -0.853 0 -1.545 0.692 -1.545 1.545 c 0 0.853 0.692 1.545 1.545 1.545 h 11.998 c 0.853 0 1.545 -0.692 1.545 -1.545 C 62.91 63.671 62.218 62.979 61.365 62.979 z" style="stroke: none; stroke-width: 1; stroke-dasharray: none; stroke-linecap: butt; stroke-linejoin: miter; stroke-miterlimit: 10; fill: rgb(55,172,149); fill-rule: nonzero; opacity: 1;" transform=" matrix(1 0 0 1 0 0) " stroke-linecap="round" />
</g>
</svg>